<svg xmlns="http://www.w3.org/2000/svg" version="1.1" xmlns:xlink="http://www.w3.org/1999/xlink"
    xmlns:svgjs="http://svgjs.dev/svgjs" width="1000" height="1000" viewBox="0 0 1000 1000">
    <rect width="1000" height="1000" fill="#ffffff"></rect>
    <g transform="matrix(0.7,0,0,0.7,149.57575757575756,440.1306044543925)">
        <svg viewBox="0 0 396 68" data-background-color="#ffffff"
            preserveAspectRatio="xMidYMid meet" height="171" width="1000"
            xmlns="http://www.w3.org/2000/svg" xmlns:xlink="http://www.w3.org/1999/xlink">
            <g id="tight-bounds" transform="matrix(1,0,0,1,0.2400000000000091,0.0110183550652323)">
                <svg viewBox="0 0 395.52 67.97796328986954" height="67.97796328986954"
                    width="395.52">
                    <g>
                        <svg viewBox="0 0 487.2952395756246 83.75135999999998"
                            height="67.97796328986954" width="395.52">
                            <g transform="matrix(1,0,0,1,91.77523957562458,20.54862117647058)">
                                <svg viewBox="0 0 395.52 42.65411764705882"
                                    height="42.65411764705882" width="395.52">
                                    <g id="textblocktransform">
                                        <svg viewBox="0 0 395.52 42.65411764705882"
                                            height="42.65411764705882" width="395.52" id="textblock">
                                            <g>
                                                <svg viewBox="0 0 395.52 42.65411764705882"
                                                    height="42.65411764705882" width="395.52">
                                                    <g transform="matrix(1,0,0,1,0,0)">
                                                        <svg width="395.52"
                                                            viewBox="5.4 -33 305.98 33"
                                                            height="42.65411764705882"
                                                            data-palette-color="#636365">
                                                            <path
                                                                d="M5.4-33L17.05-33Q20.4-33 22.88-31.78 25.35-30.55 26.75-28.3 28.15-26.05 28.15-22.95L28.15-22.95Q28.15-19.85 26.75-17.6 25.35-15.35 22.88-14.13 20.4-12.9 17.05-12.9L17.05-12.9 9.4-12.9 9.4 0 5.4 0 5.4-33ZM9.4-16.65L16.45-16.65Q20.35-16.65 22.15-18.28 23.95-19.9 23.95-22.95L23.95-22.95Q23.95-26.05 22.15-27.65 20.35-29.25 16.45-29.25L16.45-29.25 9.4-29.25 9.4-16.65ZM36 0L31.8 0 44.65-33 49.4-33 62.2 0 57.95 0 48.55-24.6 47-29.2 46.9-29.2 45.45-24.75 36 0ZM55.75-9.15L38.1-9.15 38.1-12.9 55.75-12.9 55.75-9.15ZM65.09-33L92.09-33 92.09-29.25 80.59-29.25 80.59 0 76.59 0 76.59-29.25 65.09-29.25 65.09-33ZM120.99-33L124.99-33 124.99 0 120.99 0 120.99-33ZM99.09-33L103.09-33 103.09 0 99.09 0 99.09-33ZM101.19-18.6L122.84-18.6 122.84-14.85 101.19-14.85 101.19-18.6ZM158.89-33L158.89-29.25 139.79-29.25 139.79-18.6 154.69-18.6 154.69-14.85 139.79-14.85 139.79 0 135.79 0 135.79-33 158.89-33ZM166.29-33L170.29-33 170.29 0 166.29 0 166.29-33ZM203.19-33L206.99-33 206.99 0 202.04 0 188.24-22.1 184.74-28.3 184.69-28.3 184.89-23.3 184.89 0 181.09 0 181.09-33 186.04-33 199.79-11 203.34-4.65 203.39-4.65 203.19-9.7 203.19-33ZM217.78-33L228.43-33Q236.18-33 240.61-28.73 245.03-24.45 245.03-16.5L245.03-16.5Q245.03-8.55 240.61-4.28 236.18 0 228.43 0L228.43 0 217.78 0 217.78-33ZM221.78-3.75L228.83-3.75Q234.48-3.75 237.66-7.13 240.83-10.5 240.83-16.5L240.83-16.5Q240.83-22.5 237.66-25.88 234.48-29.25 228.83-29.25L228.83-29.25 221.78-29.25 221.78-3.75ZM277.73 0L253.83 0 253.83-33 276.98-33 276.98-29.25 257.83-29.25 257.83-18.6 272.73-18.6 272.73-14.85 257.83-14.85 257.83-3.75 277.73-3.75 277.73 0ZM285.73-33L298.23-33Q303.28-33 306.33-30.4 309.38-27.8 309.38-23.35L309.38-23.35Q309.38-18.9 306.3-16.43 303.23-13.95 298.18-13.95L298.18-13.95 297.83-13.7 289.73-13.7 289.73 0 285.73 0 285.73-33ZM289.73-17.45L298.18-17.45Q301.73-17.45 303.45-18.93 305.18-20.4 305.18-23.35L305.18-23.35Q305.18-26.3 303.45-27.78 301.73-29.25 298.18-29.25L298.18-29.25 289.73-29.25 289.73-17.45ZM297.13-14.45L300.48-16.65 311.38 0 306.63 0 297.13-14.45Z"
                                                                opacity="1"
                                                                transform="matrix(1,0,0,1,0,0)"
                                                                fill="#000000"
                                                                class="wordmark-text-0"
                                                                data-fill-palette-color="primary"
                                                                id="text-0"></path>
                                                        </svg>
                                                    </g>
                                                </svg>
                                            </g>
                                        </svg>
                                    </g>
                                </svg>
                            </g>
                            <g>
                                <svg viewBox="0 0 81.70562609797753 83.75135999999998"
                                    height="83.75135999999998" width="81.70562609797753">
                                    <g>
                                        <svg xmlns="http://www.w3.org/2000/svg"
                                            xmlns:xlink="http://www.w3.org/1999/xlink" version="1.1"
                                            x="0" y="0" viewBox="7.3 5 87.80163508769266 90"
                                            enable-background="new 0 0 100 100" xml:space="preserve"
                                            height="83.75135999999998" width="81.70562609797753"
                                            class="icon-icon-0" data-fill-palette-color="accent"
                                            id="icon-0"><path d="M33.7 87.5c0.9 0 1.8-0.5 2.2-1.4l21.4-42.8C59.1 39.8 60 36 60.1 32c0-0.2 0.1-0.4 0.1-0.6C60.2 16.9 48.3 5 33.7 5 19.2 5 7.3 16.9 7.3 31.4c0 0.2 0 0.4 0.1 0.6 0.1 4 1 7.8 2.7 11.2l21.4 42.8C31.9 87 32.8 87.5 33.7 87.5zM14.6 41c-1.5-2.9-2.2-6.2-2.2-9.6 0-0.2 0-0.4-0.1-0.5C12.6 19.3 22.1 10 33.7 10c11.6 0 21.2 9.3 21.4 20.9 0 0.2-0.1 0.4-0.1 0.5 0 3.4-0.7 6.6-2.2 9.6L33.7 79.4 14.6 41z" fill="#000000" data-fill-palette-color="accent"></path><path d="M48.2 31.4c0-8-6.5-14.5-14.5-14.5s-14.5 6.5-14.5 14.5 6.5 14.5 14.5 14.5S48.2 39.4 48.2 31.4zM33.7 40.9c-5.2 0-9.5-4.3-9.5-9.5s4.3-9.5 9.5-9.5 9.5 4.3 9.5 9.5S39 40.9 33.7 40.9z" fill="#000000" data-fill-palette-color="accent"></path><path d="M85.1 52.5c1.4 0 2.5-1.2 2.4-2.6 0-1.4-1.2-2.5-2.6-2.4-0.9 0-22.4 0.9-22.4 15 0 6.5 6.4 10.1 11.6 12.9 3.3 1.8 7.1 3.9 7.1 5.8 0 0.3-0.1 0.7-0.7 1.4C75 88.1 48.9 90.1 33.7 90c-1.4 0-2.5 1.1-2.5 2.5s1.1 2.5 2.5 2.5c0.1 0 0.3 0 0.4 0 5.8 0 41.4-0.4 49.9-8.8 1.8-1.8 2.2-3.7 2.2-4.9 0-4.9-4.9-7.6-9.7-10.2-4.4-2.4-9-5-9-8.5C67.5 53.2 84.9 52.5 85.1 52.5z" fill="#000000" data-fill-palette-color="accent"></path><path d="M85.2 15.7c-5.5 0-10 4.5-10 10 0 0.1 0 0.2 0 0.4 0 1.5 0.4 2.8 1 4.1L83 43.6c0.4 0.8 1.3 1.4 2.2 1.4s1.8-0.5 2.2-1.4l6.7-13.4c0.6-1.3 1-2.7 1-4.1 0-0.1 0-0.2 0-0.4C95.2 20.2 90.7 15.7 85.2 15.7zM90.2 25.7c0 0.8-0.2 1.5-0.5 2.2l-4.5 8.9L80.8 28c-0.3-0.7-0.5-1.4-0.5-2.2 0-0.1 0-0.2 0-0.3 0.1-2.6 2.3-4.7 5-4.7 2.7 0 4.9 2.1 5 4.7C90.2 25.6 90.2 25.6 90.2 25.7z" fill="#000000" data-fill-palette-color="accent"></path></svg>
                                    </g>
                                </svg>
                            </g>
                        </svg>
                    </g>
                    <defs></defs>
                </svg>
                <rect width="395.52" height="67.97796328986954" fill="none" stroke="none"
                    visibility="hidden"></rect>
            </g>
        </svg>
    </g>
</svg>